<svg width="340" height="27" viewBox="0 0 340 27" fill="none" xmlns="http://www.w3.org/2000/svg">
<path fill-rule="evenodd" clip-rule="evenodd" d="M28.1946 10.4539C28.4104 10.4907 28.5581 10.72 28.527 10.9656C28.4939 11.2112 28.2937 11.3811 28.078 11.3443L16.633 9.33623C17.8614 11.0393 19.7372 12.4435 21.6479 12.9143L34.9162 15.4935L18.1452 25.1798C20.1882 26.1398 22.4993 25.9535 24.3964 24.6967L24.7444 24.451L30.9276 20.0726C31.0986 19.9518 31.326 20.0112 31.4329 20.2056C31.5399 20.4021 31.4874 20.658 31.3163 20.7808L24.8999 25.3251C26.6687 26.1582 28.6805 25.888 30.2239 24.6353L35.1086 20.3469C35.268 20.2056 35.4993 20.2404 35.6218 20.4226C35.7462 20.6048 35.7151 20.8668 35.5557 21.008L30.5699 25.3845C32.3057 25.6014 34.5955 25.0508 36.0222 23.8554C37.6725 22.3529 39.7329 20.1626 41.5367 19.1637C42.6544 18.5455 43.8984 18.2303 45.4554 18.4575C46.5167 18.8751 47.6344 19.0737 48.756 19.0409C49.4946 19.1842 50.1419 19.6734 50.5442 20.3817C50.7775 19.2436 50.346 17.9233 49.3624 17.5855C49.376 17.172 49.2011 16.7892 48.9115 16.5641L48.6452 16.4146L41.5348 12.4374C38.1973 10.5705 34.8598 8.70166 31.5224 6.83483C30.0237 6.04061 28.459 5.41833 26.8534 4.97823C25.8815 4.71212 25.0262 4.56883 24.0368 4.3887L0 0C1.31983 1.91801 3.06341 2.9722 5.14131 3.34679L22.1086 6.41315C22.3244 6.45205 22.4702 6.68131 22.4352 6.92694C22.4002 7.17258 22.2 7.33838 21.9842 7.29949L8.51572 4.86565C9.51094 6.37426 10.9707 7.3916 12.5977 7.71707L12.8562 7.76211L28.1946 10.4539Z" fill="#EAAC08"/>
<path fill-rule="evenodd" clip-rule="evenodd" d="M71.1095 4.83903L57.4758 7.35681C57.2659 7.39365 57.0695 7.22785 57.0384 6.98221C57.0054 6.73658 57.1492 6.50731 57.3592 6.47047L74.7949 3.25059C76.5113 2.85552 78.0352 1.69284 79.0343 0L54.115 4.74692C54.115 4.74692 54.115 4.74692 54.113 4.74692C52.1148 5.12766 50.7814 5.65578 48.9659 6.66084L40.8409 11.158L47.5819 14.8897C51.3917 14.1057 54.8905 13.5632 58.7023 12.7792C60.5256 12.3453 62.1273 11.068 63.1341 9.22774L51.4889 11.3791C51.279 11.4159 51.0827 11.2501 51.0516 11.0045C51.0185 10.7589 51.1624 10.5296 51.3723 10.4928L66.5027 7.69865C68.2502 7.32406 69.8616 6.32718 71.1134 4.84108L71.1095 4.83903Z" fill="#EAAC08"/>
<path d="M337.171 21.839V3.98344H340V21.839H337.171ZM335.469 6.18481V3.98344H340V6.18481H335.469Z" fill="#FDFDFC"/>
<path d="M332.567 21.839V17.901H332.111V13.4493C332.111 12.634 331.904 12.0144 331.488 11.5904C331.073 11.1664 330.457 10.9545 329.642 10.9545C329.195 10.9545 328.699 10.9626 328.156 10.9789C327.612 10.9952 327.077 11.0197 326.549 11.0523C326.038 11.0686 325.582 11.0931 325.183 11.1257V8.65524C325.535 8.62263 325.918 8.59817 326.334 8.58186C326.765 8.54925 327.205 8.52479 327.652 8.50848C328.116 8.49218 328.555 8.48402 328.971 8.48402C330.281 8.48402 331.368 8.65524 332.231 8.99768C333.094 9.34011 333.734 9.88638 334.149 10.6365C334.581 11.3703 334.796 12.3568 334.796 13.5961V21.839H332.567ZM328.371 22.1815C327.428 22.1815 326.605 22.0184 325.902 21.6923C325.199 21.3498 324.656 20.8606 324.272 20.2247C323.888 19.5724 323.697 18.7979 323.697 17.901C323.697 16.9552 323.912 16.1725 324.344 15.5529C324.791 14.9332 325.423 14.4685 326.238 14.1587C327.053 13.8489 328.028 13.6939 329.163 13.6939H332.399V15.5773H329.091C328.244 15.5773 327.596 15.7893 327.149 16.2133C326.701 16.6209 326.478 17.1591 326.478 17.8276C326.478 18.4962 326.701 19.0343 327.149 19.442C327.596 19.8333 328.244 20.029 329.091 20.029C329.586 20.029 330.058 19.9393 330.505 19.7599C330.953 19.5643 331.32 19.2463 331.608 18.806C331.912 18.3657 332.079 17.7461 332.111 16.9471L332.831 17.901C332.751 18.8305 332.527 19.6132 332.159 20.2491C331.808 20.8688 331.312 21.3498 330.673 21.6923C330.05 22.0184 329.282 22.1815 328.371 22.1815Z" fill="#FDFDFC"/>
<path d="M319.228 21.839V8.65524H322.033V21.839H319.228ZM317.334 10.8566V8.65524H322.033V10.8566H317.334ZM320.139 6.82076C319.564 6.82076 319.132 6.66585 318.845 6.35603C318.573 6.0462 318.437 5.64669 318.437 5.1575C318.437 4.68461 318.573 4.29326 318.845 3.98344C319.132 3.65731 319.564 3.49424 320.139 3.49424C320.731 3.49424 321.162 3.65731 321.434 3.98344C321.722 4.29326 321.865 4.68461 321.865 5.1575C321.865 5.64669 321.722 6.0462 321.434 6.35603C321.162 6.66585 320.731 6.82076 320.139 6.82076Z" fill="#FDFDFC"/>
<path d="M310.828 22.2793C309.725 22.2793 308.758 22.0918 307.927 21.7167C307.112 21.3254 306.433 20.8035 305.889 20.1513C305.362 19.4827 304.962 18.7489 304.691 17.9499C304.435 17.1346 304.307 16.3111 304.307 15.4795V15.0392C304.307 14.175 304.443 13.3433 304.715 12.5443C304.986 11.729 305.394 10.9952 305.937 10.343C306.481 9.69069 307.152 9.17704 307.951 8.80199C308.766 8.41063 309.717 8.21496 310.804 8.21496C311.907 8.21496 312.89 8.42694 313.753 8.85091C314.632 9.27488 315.335 9.87822 315.862 10.6609C316.39 11.4273 316.685 12.3242 316.749 13.3515H314.04C313.944 12.6177 313.617 11.9981 313.057 11.4926C312.514 10.9871 311.763 10.7343 310.804 10.7343C309.973 10.7343 309.286 10.93 308.742 11.3213C308.199 11.7127 307.791 12.2508 307.52 12.9357C307.248 13.6042 307.112 14.3788 307.112 15.2593C307.112 16.1073 307.24 16.8737 307.496 17.5586C307.767 18.2434 308.175 18.7815 308.718 19.1729C309.278 19.5643 309.981 19.7599 310.828 19.7599C311.483 19.7599 312.043 19.6458 312.506 19.4175C312.986 19.1729 313.369 18.8549 313.657 18.4636C313.944 18.0559 314.112 17.5912 314.16 17.0694H316.893C316.845 18.1293 316.55 19.0506 316.006 19.8333C315.463 20.5997 314.744 21.2031 313.849 21.6433C312.954 22.0673 311.947 22.2793 310.828 22.2793Z" fill="#FDFDFC"/>
<path d="M290.988 21.839V8.65523H293.218V14.3054H292.954C292.954 13.0009 293.122 11.9002 293.458 11.0034C293.809 10.1065 294.337 9.42979 295.04 8.97321C295.743 8.50032 296.614 8.26388 297.653 8.26388H297.773C299.371 8.26388 300.562 8.77753 301.345 9.80484C302.128 10.8321 302.52 12.3323 302.52 14.3054V21.839H299.715V13.9141C299.715 13.0009 299.459 12.2671 298.948 11.7127C298.436 11.142 297.733 10.8566 296.838 10.8566C295.927 10.8566 295.192 11.1501 294.632 11.7372C294.073 12.3079 293.793 13.0743 293.793 14.0364V21.839H290.988Z" fill="#FDFDFC"/>
<path d="M286.528 21.839V17.901H286.072V13.4493C286.072 12.634 285.865 12.0144 285.449 11.5904C285.034 11.1664 284.418 10.9545 283.603 10.9545C283.156 10.9545 282.66 10.9626 282.117 10.9789C281.573 10.9952 281.038 11.0197 280.511 11.0523C279.999 11.0686 279.544 11.0931 279.144 11.1257V8.65524C279.496 8.62263 279.879 8.59817 280.295 8.58186C280.726 8.54925 281.166 8.52479 281.613 8.50848C282.077 8.49218 282.516 8.48402 282.932 8.48402C284.242 8.48402 285.329 8.65524 286.192 8.99768C287.055 9.34011 287.695 9.88638 288.11 10.6365C288.542 11.3703 288.758 12.3568 288.758 13.5961V21.839H286.528ZM282.333 22.1815C281.39 22.1815 280.566 22.0184 279.863 21.6923C279.16 21.3498 278.617 20.8606 278.233 20.2247C277.849 19.5724 277.658 18.7979 277.658 17.901C277.658 16.9552 277.873 16.1725 278.305 15.5529C278.752 14.9332 279.384 14.4685 280.199 14.1587C281.014 13.8489 281.989 13.6939 283.124 13.6939H286.36V15.5773H283.052C282.205 15.5773 281.557 15.7893 281.11 16.2133C280.662 16.6209 280.439 17.1591 280.439 17.8276C280.439 18.4962 280.662 19.0343 281.11 19.442C281.557 19.8333 282.205 20.029 283.052 20.029C283.547 20.029 284.019 19.9393 284.466 19.7599C284.914 19.5643 285.281 19.2463 285.569 18.806C285.873 18.3657 286.04 17.7461 286.072 16.9471L286.792 17.901C286.712 18.8305 286.488 19.6132 286.12 20.2491C285.769 20.8688 285.273 21.3498 284.634 21.6923C284.011 22.0184 283.244 22.1815 282.333 22.1815Z" fill="#FDFDFC"/>
<path d="M264.507 21.839V8.65523H266.736V14.3054H266.473C266.473 13.0009 266.64 11.9002 266.976 11.0034C267.328 10.1065 267.855 9.42979 268.558 8.97321C269.262 8.50032 270.133 8.26388 271.171 8.26388H271.291C272.89 8.26388 274.08 8.77753 274.863 9.80484C275.647 10.8321 276.038 12.3323 276.038 14.3054V21.839H273.233V13.9141C273.233 13.0009 272.977 12.2671 272.466 11.7127C271.955 11.142 271.251 10.8566 270.356 10.8566C269.445 10.8566 268.71 11.1501 268.151 11.7372C267.591 12.3079 267.312 13.0743 267.312 14.0364V21.839H264.507Z" fill="#FDFDFC"/>
<path d="M259.439 21.839V8.65524H262.244V21.839H259.439ZM257.545 10.8566V8.65524H262.244V10.8566H257.545ZM260.35 6.82076C259.775 6.82076 259.343 6.66585 259.055 6.35603C258.784 6.0462 258.648 5.64669 258.648 5.1575C258.648 4.68461 258.784 4.29326 259.055 3.98344C259.343 3.65731 259.775 3.49424 260.35 3.49424C260.941 3.49424 261.373 3.65731 261.645 3.98344C261.932 4.29326 262.076 4.68461 262.076 5.1575C262.076 5.64669 261.932 6.0462 261.645 6.35603C261.373 6.66585 260.941 6.82076 260.35 6.82076Z" fill="#FDFDFC"/>
<path d="M246.332 21.839V3.98344H249.209V21.839H246.332ZM248.729 14.1342V11.5904H255.993V14.1342H248.729ZM248.729 6.52724V3.98344H256.353V6.52724H248.729Z" fill="#FDFDFC"/>
<path d="M229.206 27V24.4807H231.339C231.835 24.4807 232.258 24.4154 232.61 24.285C232.962 24.1708 233.249 23.9588 233.473 23.649C233.697 23.3555 233.881 22.956 234.025 22.4505L237.788 8.65523H240.497L236.422 23.1354C236.166 24.0485 235.807 24.7905 235.343 25.3612C234.896 25.9319 234.32 26.3477 233.617 26.6086C232.93 26.8695 232.099 27 231.124 27H229.206ZM233.185 21.5455V19.2218H235.966V21.5455H233.185ZM232.49 21.5455L228.103 8.65523H230.956L235.151 21.5455H232.49Z" fill="#FDFDFC"/>
<path d="M224.849 21.9858C223.779 21.9858 222.876 21.839 222.14 21.5455C221.405 21.252 220.846 20.7465 220.462 20.029C220.095 19.3115 219.911 18.3413 219.911 17.1183V4.81506H222.572V17.3629C222.572 18.0478 222.748 18.5777 223.099 18.9528C223.467 19.3115 223.978 19.4909 224.634 19.4909H226.791V21.9858H224.849ZM217.777 10.7832V8.65524H226.791V10.7832H217.777Z" fill="#FDFDFC"/>
<path d="M208.888 21.839V8.65524H211.117V14.1587H211.021C211.021 12.2671 211.429 10.8566 212.244 9.92715C213.059 8.98137 214.266 8.50848 215.864 8.50848H216.32V11.0278H215.456C214.242 11.0278 213.307 11.3621 212.652 12.0307C212.012 12.6829 211.693 13.6206 211.693 14.8435V21.839H208.888Z" fill="#FDFDFC"/>
<path d="M200.947 22.2793C199.829 22.2793 198.854 22.0836 198.023 21.6922C197.191 21.3009 196.512 20.7872 195.985 20.1513C195.457 19.499 195.058 18.7734 194.786 17.9744C194.53 17.1591 194.402 16.3274 194.402 15.4795V15.0148C194.402 14.1505 194.53 13.3189 194.786 12.5199C195.058 11.7045 195.457 10.9789 195.985 10.343C196.512 9.69069 197.175 9.17704 197.975 8.80199C198.79 8.41063 199.733 8.21496 200.803 8.21496C202.194 8.21496 203.353 8.52478 204.28 9.14443C205.207 9.76407 205.902 10.5712 206.365 11.5659C206.829 12.5443 207.061 13.6042 207.061 14.7457V15.8953H195.601V13.963H205.167L204.399 14.9414C204.399 14.0608 204.264 13.3026 203.992 12.6666C203.72 12.0144 203.321 11.517 202.793 11.1746C202.266 10.8158 201.603 10.6365 200.803 10.6365C199.972 10.6365 199.277 10.8321 198.718 11.2235C198.158 11.6149 197.743 12.153 197.471 12.8378C197.199 13.5227 197.064 14.3299 197.064 15.2593C197.064 16.1399 197.199 16.9308 197.471 17.6319C197.743 18.3168 198.166 18.8631 198.742 19.2707C199.317 19.6621 200.052 19.8578 200.947 19.8578C201.842 19.8578 202.578 19.6621 203.153 19.2707C203.728 18.8631 204.08 18.3902 204.208 17.8521H206.821C206.645 18.7489 206.285 19.5316 205.742 20.2002C205.215 20.8688 204.543 21.3824 203.728 21.7412C202.913 22.0999 201.986 22.2793 200.947 22.2793Z" fill="#FDFDFC"/>
<path d="M186.579 22.2793C185.524 22.2793 184.581 22.0428 183.75 21.57C182.935 21.0971 182.288 20.4122 181.808 19.5153C181.345 18.6185 181.089 17.5341 181.041 16.2622H181.616V21.839H179.387V3.98344H182.192V12.7889L181.353 14.3788C181.401 12.9764 181.664 11.8268 182.144 10.93C182.639 10.0168 183.287 9.34011 184.086 8.89983C184.885 8.45956 185.78 8.23942 186.771 8.23942C187.682 8.23942 188.505 8.41064 189.24 8.75308C189.991 9.09551 190.631 9.57655 191.158 10.1962C191.701 10.7995 192.109 11.5089 192.381 12.3242C192.668 13.1395 192.812 14.0201 192.812 14.9658V15.455C192.812 16.4008 192.668 17.2814 192.381 18.0967C192.093 18.912 191.669 19.6376 191.11 20.2736C190.567 20.8932 189.911 21.3824 189.144 21.7412C188.377 22.0999 187.522 22.2793 186.579 22.2793ZM186.076 19.8089C186.859 19.8089 187.546 19.6132 188.137 19.2218C188.729 18.8305 189.184 18.2924 189.504 17.6075C189.839 16.9063 190.007 16.1073 190.007 15.2104C190.007 14.2973 189.839 13.5064 189.504 12.8378C189.168 12.153 188.705 11.623 188.113 11.248C187.538 10.8729 186.859 10.6854 186.076 10.6854C185.372 10.6854 184.717 10.8485 184.11 11.1746C183.502 11.5007 183.015 11.9736 182.647 12.5932C182.28 13.1966 182.096 13.9304 182.096 14.7946V15.8464C182.096 16.678 182.28 17.3955 182.647 17.9988C183.031 18.5859 183.526 19.0343 184.134 19.3441C184.741 19.6539 185.388 19.8089 186.076 19.8089Z" fill="#FDFDFC"/>
<path d="M174.319 21.839V8.65524H177.124V21.839H174.319ZM172.425 10.8566V8.65524H177.124V10.8566H172.425ZM175.23 6.82076C174.655 6.82076 174.223 6.66585 173.936 6.35603C173.664 6.0462 173.528 5.64669 173.528 5.1575C173.528 4.68461 173.664 4.29326 173.936 3.98344C174.223 3.65731 174.655 3.49424 175.23 3.49424C175.822 3.49424 176.253 3.65731 176.525 3.98344C176.812 4.29326 176.956 4.68461 176.956 5.1575C176.956 5.64669 176.812 6.0462 176.525 6.35603C176.253 6.66585 175.822 6.82076 175.23 6.82076Z" fill="#FDFDFC"/>
<path d="M162.025 21.839V3.98344H164.902V21.839H162.025ZM164.422 21.839V19.2218H172.214V21.839H164.422Z" fill="#FDFDFC"/>
<path d="M147.544 22.2793C146.617 22.2793 145.77 22.1081 145.003 21.7656C144.252 21.4232 143.589 20.9422 143.013 20.3225C142.454 19.7029 142.022 18.9854 141.719 18.1701C141.415 17.3547 141.263 16.466 141.263 15.504V15.0392C141.263 14.0934 141.407 13.2129 141.695 12.3976C141.998 11.5659 142.422 10.8403 142.965 10.2207C143.509 9.60101 144.156 9.11997 144.907 8.77754C145.674 8.41879 146.521 8.23942 147.448 8.23942C148.439 8.23942 149.326 8.45956 150.109 8.89983C150.909 9.3238 151.548 9.98421 152.027 10.8811C152.523 11.7616 152.795 12.8868 152.842 14.2565L151.884 12.9112V3.98344H154.688V21.839H152.459V16.1154H153.082C153.034 17.5341 152.747 18.7 152.219 19.6132C151.708 20.5263 151.044 21.2031 150.229 21.6433C149.414 22.0673 148.519 22.2793 147.544 22.2793ZM148.072 19.8089C148.791 19.8089 149.438 19.6458 150.014 19.3197C150.605 18.9935 151.076 18.5206 151.428 17.901C151.796 17.265 151.979 16.5231 151.979 15.6752V14.6234C151.979 13.7918 151.796 13.0824 151.428 12.4954C151.06 11.9084 150.581 11.4599 149.99 11.1501C149.398 10.8403 148.751 10.6854 148.048 10.6854C147.265 10.6854 146.569 10.8811 145.962 11.2724C145.371 11.6475 144.907 12.1774 144.572 12.8623C144.236 13.5472 144.068 14.3462 144.068 15.2594C144.068 16.1888 144.236 16.996 144.572 17.6809C144.923 18.3657 145.403 18.8957 146.01 19.2707C146.617 19.6295 147.305 19.8089 148.072 19.8089Z" fill="#FDFDFC"/>
<path d="M136.423 21.839V3.98344H139.252V21.839H136.423ZM134.721 6.18481V3.98344H139.252V6.18481H134.721Z" fill="#FDFDFC"/>
<path d="M126.832 21.839V8.65524H129.061V14.1587H128.966C128.966 12.2671 129.373 10.8566 130.188 9.92715C131.003 8.98137 132.21 8.50848 133.808 8.50848H134.264V11.0278H133.401C132.186 11.0278 131.251 11.3621 130.596 12.0307C129.956 12.6829 129.637 13.6206 129.637 14.8435V21.839H126.832Z" fill="#FDFDFC"/>
<path d="M117.848 22.2793C116.713 22.2793 115.714 22.0918 114.851 21.7167C113.988 21.3254 113.261 20.8117 112.67 20.1757C112.078 19.5398 111.631 18.8223 111.327 18.0233C111.024 17.208 110.872 16.3682 110.872 15.5039V15.0148C110.872 14.1505 111.024 13.3107 111.327 12.4954C111.647 11.6801 112.102 10.9544 112.694 10.3185C113.301 9.66623 114.036 9.15258 114.899 8.77753C115.762 8.40248 116.745 8.21496 117.848 8.21496C118.951 8.21496 119.926 8.40248 120.773 8.77753C121.636 9.15258 122.371 9.66623 122.979 10.3185C123.586 10.9544 124.041 11.6801 124.345 12.4954C124.665 13.3107 124.824 14.1505 124.824 15.0148V15.5039C124.824 16.3682 124.673 17.208 124.369 18.0233C124.065 18.8223 123.618 19.5398 123.026 20.1757C122.435 20.8117 121.708 21.3254 120.845 21.7167C119.982 22.0918 118.983 22.2793 117.848 22.2793ZM117.848 19.7844C118.727 19.7844 119.478 19.5887 120.102 19.1974C120.725 18.7897 121.196 18.2434 121.516 17.5586C121.852 16.8737 122.02 16.1073 122.02 15.2593C122.02 14.3951 121.852 13.6206 121.516 12.9357C121.18 12.2508 120.701 11.7127 120.078 11.3213C119.454 10.9137 118.711 10.7098 117.848 10.7098C116.985 10.7098 116.242 10.9137 115.619 11.3213C114.995 11.7127 114.516 12.2508 114.18 12.9357C113.845 13.6206 113.677 14.3951 113.677 15.2593C113.677 16.1073 113.837 16.8737 114.156 17.5586C114.492 18.2434 114.971 18.7897 115.595 19.1974C116.218 19.5887 116.969 19.7844 117.848 19.7844Z" fill="#FDFDFC"/>
<path d="M91.5167 21.839L86.9377 3.98344H89.9105L93.7702 19.9067L92.7394 19.3197H95.3525L94.2258 19.9067L97.3184 4.69277H99.8596L96.1916 21.839H91.5167ZM102.017 21.839L97.9896 4.69277H100.651L104.175 19.9067L103.072 19.3197H105.685L104.606 19.9067L108.035 3.98344H110.864L106.74 21.839H102.017Z" fill="#FDFDFC"/>
</svg>
